<svg xmlns="http://www.w3.org/2000/svg" xmlns:xlink="http://www.w3.org/1999/xlink" width="500" zoomAndPan="magnify" viewBox="0 0 375 374.999991" height="500" preserveAspectRatio="xMidYMid meet" version="1.0"><defs><g/><clipPath id="229989eeaf"><path d="M 211 161.585938 L 300 161.585938 L 300 201 L 211 201 Z M 211 161.585938 " clip-rule="nonzero"/></clipPath><clipPath id="98d1adec6a"><path d="M 136 161.585938 L 249 161.585938 L 249 201 L 136 201 Z M 136 161.585938 " clip-rule="nonzero"/></clipPath><clipPath id="46d7936d75"><path d="M 75 161.585938 L 163 161.585938 L 163 201 L 75 201 Z M 75 161.585938 " clip-rule="nonzero"/></clipPath><clipPath id="63c2960e6f"><path d="M 105.03125 100.929688 L 269.894531 100.929688 L 269.894531 190.742188 L 105.03125 190.742188 Z M 105.03125 100.929688 " clip-rule="nonzero"/></clipPath></defs><rect x="-37.5" width="450" fill="#ffffff" y="-37.499999" height="449.999989" fill-opacity="1"/><rect x="-37.5" width="450" fill="#ffffff" y="-37.499999" height="449.999989" fill-opacity="1"/><path fill="#393536" d="M 173.589844 195.761719 L 167.3125 195.761719 L 167.3125 189.445312 L 173.589844 189.445312 L 173.589844 195.761719 " fill-opacity="1" fill-rule="nonzero"/><path fill="#393536" d="M 181.289062 195.761719 L 175.011719 195.761719 L 175.011719 189.445312 L 181.289062 189.445312 L 181.289062 195.761719 " fill-opacity="1" fill-rule="nonzero"/><path fill="#393536" d="M 173.589844 203.328125 L 167.3125 203.328125 L 167.3125 197.011719 L 173.589844 197.011719 L 173.589844 203.328125 " fill-opacity="1" fill-rule="nonzero"/><path fill="#393536" d="M 181.289062 203.328125 L 175.011719 203.328125 L 175.011719 197.011719 L 181.289062 197.011719 L 181.289062 203.328125 " fill-opacity="1" fill-rule="nonzero"/><path fill="#bdbcbc" d="M 174.300781 177.835938 L 198.316406 200.015625 L 174.300781 175.929688 L 150.285156 200.015625 L 174.300781 177.835938 " fill-opacity="1" fill-rule="nonzero"/><g clip-path="url(#229989eeaf)"><path fill="#393536" d="M 276.410156 195.503906 L 242.667969 161.660156 L 211.148438 171.332031 L 213.789062 172.039062 L 230.511719 184.359375 L 242.667969 172.167969 L 270.4375 200.015625 L 299.257812 200.015625 L 276.410156 195.503906 " fill-opacity="1" fill-rule="nonzero"/></g><path fill="#bdbcbc" d="M 108.238281 200.015625 L 132.257812 177.835938 L 144.613281 189.246094 L 145.074219 188.785156 L 132.257812 175.929688 Z M 242.757812 175.929688 L 232.648438 186.066406 L 233.316406 186.558594 L 242.757812 177.835938 L 266.777344 200.015625 L 242.757812 175.929688 " fill-opacity="1" fill-rule="nonzero"/><g clip-path="url(#98d1adec6a)"><path fill="#c3921c" d="M 213.039062 173.542969 L 174.300781 161.660156 L 136.054688 200.015625 L 146.53125 200.015625 L 174.300781 172.167969 L 202.070312 200.015625 L 248.976562 200.015625 L 213.039062 173.542969 " fill-opacity="1" fill-rule="nonzero"/></g><g clip-path="url(#46d7936d75)"><path fill="#393536" d="M 158.601562 169.714844 L 158.601562 164.835938 L 157.8125 164.835938 L 157.8125 163.601562 L 153.640625 163.601562 L 153.640625 164.835938 L 152.851562 164.835938 L 152.851562 167.949219 L 132.347656 161.660156 L 98.601562 195.503906 L 75.757812 200.015625 L 104.578125 200.015625 L 132.347656 172.167969 L 146.917969 186.78125 L 162.6875 170.964844 L 158.601562 169.714844 " fill-opacity="1" fill-rule="nonzero"/></g><g clip-path="url(#63c2960e6f)"><path fill="#000000" d="M 187.460938 265.792969 C 141.921875 265.792969 105.03125 228.648438 105.03125 183.359375 C 105.03125 138.074219 141.921875 100.929688 187.460938 100.929688 C 233.003906 100.929688 269.894531 137.820312 269.894531 183.359375 C 269.894531 228.902344 232.75 265.792969 187.460938 265.792969 Z M 187.460938 106.019531 C 144.71875 106.019531 110.121094 140.617188 110.121094 183.359375 C 110.121094 226.101562 144.71875 260.703125 187.460938 260.703125 C 230.203125 260.703125 264.804688 226.101562 264.804688 183.359375 C 264.804688 140.617188 229.949219 106.019531 187.460938 106.019531 Z M 187.460938 106.019531 " fill-opacity="1" fill-rule="nonzero"/></g><g fill="#393536" fill-opacity="1"><g transform="translate(124.478099, 237.272522)"><g><path d="M 2.140625 0 L 2.140625 -22.03125 L 6.171875 -22.03125 L 6.171875 -3.140625 L 15.921875 -3.140625 L 15.921875 0 Z M 2.140625 0 "/></g></g></g><g fill="#393536" fill-opacity="1"><g transform="translate(141.809631, 237.272522)"><g><path d="M 10.640625 0.375 C 9.023438 0.375 7.566406 0.0546875 6.265625 -0.578125 C 4.960938 -1.222656 3.925781 -2.191406 3.15625 -3.484375 C 2.394531 -4.785156 2.015625 -6.4375 2.015625 -8.4375 L 2.015625 -22.03125 L 6.046875 -22.03125 L 6.046875 -8.40625 C 6.046875 -6.6875 6.457031 -5.40625 7.28125 -4.5625 C 8.113281 -3.71875 9.265625 -3.296875 10.734375 -3.296875 C 12.179688 -3.296875 13.320312 -3.71875 14.15625 -4.5625 C 15 -5.40625 15.421875 -6.6875 15.421875 -8.40625 L 15.421875 -22.03125 L 19.453125 -22.03125 L 19.453125 -8.4375 C 19.453125 -6.4375 19.050781 -4.785156 18.25 -3.484375 C 17.457031 -2.191406 16.394531 -1.222656 15.0625 -0.578125 C 13.726562 0.0546875 12.253906 0.375 10.640625 0.375 Z M 10.640625 0.375 "/></g></g></g><g fill="#393536" fill-opacity="1"><g transform="translate(163.230278, 237.272522)"><g><path d="M 1.0625 0 L 7.96875 -11.140625 L 0.96875 -22.03125 L 5.59375 -22.03125 L 10.546875 -14.34375 L 15.078125 -22.03125 L 19.609375 -22.03125 L 12.71875 -10.953125 L 19.765625 0 L 15.140625 0 L 10.140625 -7.765625 L 5.59375 0 Z M 1.0625 0 "/></g></g></g><g fill="#393536" fill-opacity="1"><g transform="translate(183.95893, 237.272522)"><g><path d="M 12.46875 0.375 C 10.257812 0.375 8.332031 -0.101562 6.6875 -1.0625 C 5.039062 -2.03125 3.75 -3.367188 2.8125 -5.078125 C 1.882812 -6.785156 1.421875 -8.765625 1.421875 -11.015625 C 1.421875 -13.253906 1.882812 -15.226562 2.8125 -16.9375 C 3.75 -18.65625 5.039062 -19.992188 6.6875 -20.953125 C 8.332031 -21.921875 10.257812 -22.40625 12.46875 -22.40625 C 14.644531 -22.40625 16.5625 -21.921875 18.21875 -20.953125 C 19.875 -19.992188 21.160156 -18.65625 22.078125 -16.9375 C 23.003906 -15.226562 23.46875 -13.253906 23.46875 -11.015625 C 23.46875 -8.765625 23.003906 -6.785156 22.078125 -5.078125 C 21.160156 -3.367188 19.875 -2.03125 18.21875 -1.0625 C 16.5625 -0.101562 14.644531 0.375 12.46875 0.375 Z M 12.46875 -3.234375 C 14.5625 -3.234375 16.234375 -3.925781 17.484375 -5.3125 C 18.734375 -6.695312 19.359375 -8.597656 19.359375 -11.015625 C 19.359375 -13.429688 18.734375 -15.328125 17.484375 -16.703125 C 16.234375 -18.085938 14.5625 -18.78125 12.46875 -18.78125 C 10.363281 -18.78125 8.679688 -18.085938 7.421875 -16.703125 C 6.160156 -15.328125 5.53125 -13.429688 5.53125 -11.015625 C 5.53125 -8.597656 6.160156 -6.695312 7.421875 -5.3125 C 8.679688 -3.925781 10.363281 -3.234375 12.46875 -3.234375 Z M 12.46875 -3.234375 "/></g></g></g><g fill="#393536" fill-opacity="1"><g transform="translate(208.839596, 237.272522)"><g><path d="M 2.140625 0 L 2.140625 -22.03125 L 10.234375 -22.03125 C 11.992188 -22.03125 13.441406 -21.726562 14.578125 -21.125 C 15.722656 -20.53125 16.578125 -19.722656 17.140625 -18.703125 C 17.710938 -17.691406 18 -16.566406 18 -15.328125 C 18 -13.984375 17.644531 -12.753906 16.9375 -11.640625 C 16.238281 -10.523438 15.144531 -9.71875 13.65625 -9.21875 L 18.21875 0 L 13.59375 0 L 9.5 -8.6875 L 6.171875 -8.6875 L 6.171875 0 Z M 6.171875 -11.640625 L 9.96875 -11.640625 C 11.3125 -11.640625 12.296875 -11.960938 12.921875 -12.609375 C 13.554688 -13.265625 13.875 -14.128906 13.875 -15.203125 C 13.875 -16.242188 13.5625 -17.078125 12.9375 -17.703125 C 12.320312 -18.335938 11.320312 -18.65625 9.9375 -18.65625 L 6.171875 -18.65625 Z M 6.171875 -11.640625 "/></g></g></g><g fill="#393536" fill-opacity="1"><g transform="translate(228.435869, 237.272522)"><g><path d="M 0.71875 0 L 8.78125 -22.03125 L 13.3125 -22.03125 L 21.375 0 L 17.09375 0 L 15.328125 -5.09375 L 6.734375 -5.09375 L 4.9375 0 Z M 7.828125 -8.25 L 14.21875 -8.25 L 11.015625 -17.40625 Z M 7.828125 -8.25 "/></g></g></g><g fill="#c3921c" fill-opacity="0.4"><g transform="translate(119.740442, 255.605081)"><g><path d="M 0.9375 0 L 0.9375 -9.640625 L 4.46875 -9.640625 C 5.238281 -9.640625 5.875 -9.503906 6.375 -9.234375 C 6.875 -8.972656 7.25 -8.617188 7.5 -8.171875 C 7.75 -7.734375 7.875 -7.242188 7.875 -6.703125 C 7.875 -6.117188 7.71875 -5.582031 7.40625 -5.09375 C 7.101562 -4.601562 6.625 -4.25 5.96875 -4.03125 L 7.96875 0 L 5.953125 0 L 4.15625 -3.796875 L 2.703125 -3.796875 L 2.703125 0 Z M 2.703125 -5.09375 L 4.359375 -5.09375 C 4.953125 -5.09375 5.382812 -5.234375 5.65625 -5.515625 C 5.9375 -5.804688 6.078125 -6.1875 6.078125 -6.65625 C 6.078125 -7.113281 5.941406 -7.476562 5.671875 -7.75 C 5.398438 -8.019531 4.957031 -8.15625 4.34375 -8.15625 L 2.703125 -8.15625 Z M 2.703125 -5.09375 "/></g></g></g><g fill="#c3921c" fill-opacity="0.4"><g transform="translate(128.318887, 255.605081)"><g><path d="M 0.9375 0 L 0.9375 -9.640625 L 7.234375 -9.640625 L 7.234375 -8.21875 L 2.703125 -8.21875 L 2.703125 -5.578125 L 6.8125 -5.578125 L 6.8125 -4.203125 L 2.703125 -4.203125 L 2.703125 -1.421875 L 7.234375 -1.421875 L 7.234375 0 Z M 0.9375 0 "/></g></g></g><g fill="#c3921c" fill-opacity="0.4"><g transform="translate(136.277691, 255.605081)"><g><path d="M 0.3125 0 L 3.84375 -9.640625 L 5.828125 -9.640625 L 9.34375 0 L 7.46875 0 L 6.703125 -2.234375 L 2.953125 -2.234375 L 2.15625 0 Z M 3.421875 -3.609375 L 6.21875 -3.609375 L 4.8125 -7.609375 Z M 3.421875 -3.609375 "/></g></g></g><g fill="#c3921c" fill-opacity="0.4"><g transform="translate(145.930153, 255.605081)"><g><path d="M 0.9375 0 L 0.9375 -9.640625 L 2.703125 -9.640625 L 2.703125 -1.375 L 6.96875 -1.375 L 6.96875 0 Z M 0.9375 0 "/></g></g></g><g fill="#c3921c" fill-opacity="0.4"><g transform="translate(153.517185, 255.605081)"><g/></g></g><g fill="#c3921c" fill-opacity="0.4"><g transform="translate(156.794337, 255.605081)"><g><path d="M 0.9375 0 L 0.9375 -9.640625 L 7.234375 -9.640625 L 7.234375 -8.21875 L 2.703125 -8.21875 L 2.703125 -5.578125 L 6.8125 -5.578125 L 6.8125 -4.203125 L 2.703125 -4.203125 L 2.703125 -1.421875 L 7.234375 -1.421875 L 7.234375 0 Z M 0.9375 0 "/></g></g></g><g fill="#c3921c" fill-opacity="0.4"><g transform="translate(164.753142, 255.605081)"><g><path d="M 4.21875 0.171875 C 3.519531 0.171875 2.898438 0.0507812 2.359375 -0.1875 C 1.816406 -0.4375 1.390625 -0.785156 1.078125 -1.234375 C 0.765625 -1.691406 0.601562 -2.25 0.59375 -2.90625 L 2.453125 -2.90625 C 2.472656 -2.457031 2.632812 -2.078125 2.9375 -1.765625 C 3.25 -1.460938 3.675781 -1.3125 4.21875 -1.3125 C 4.6875 -1.3125 5.054688 -1.421875 5.328125 -1.640625 C 5.597656 -1.867188 5.734375 -2.171875 5.734375 -2.546875 C 5.734375 -2.941406 5.613281 -3.25 5.375 -3.46875 C 5.132812 -3.6875 4.8125 -3.863281 4.40625 -4 C 4 -4.144531 3.566406 -4.296875 3.109375 -4.453125 C 2.367188 -4.703125 1.800781 -5.03125 1.40625 -5.4375 C 1.019531 -5.84375 0.828125 -6.378906 0.828125 -7.046875 C 0.816406 -7.617188 0.953125 -8.109375 1.234375 -8.515625 C 1.515625 -8.921875 1.894531 -9.234375 2.375 -9.453125 C 2.863281 -9.679688 3.425781 -9.796875 4.0625 -9.796875 C 4.707031 -9.796875 5.273438 -9.679688 5.765625 -9.453125 C 6.253906 -9.222656 6.640625 -8.898438 6.921875 -8.484375 C 7.203125 -8.078125 7.347656 -7.585938 7.359375 -7.015625 L 5.484375 -7.015625 C 5.472656 -7.359375 5.335938 -7.660156 5.078125 -7.921875 C 4.828125 -8.179688 4.476562 -8.3125 4.03125 -8.3125 C 3.644531 -8.320312 3.320312 -8.226562 3.0625 -8.03125 C 2.800781 -7.832031 2.671875 -7.546875 2.671875 -7.171875 C 2.671875 -6.847656 2.769531 -6.59375 2.96875 -6.40625 C 3.175781 -6.21875 3.453125 -6.054688 3.796875 -5.921875 C 4.148438 -5.796875 4.550781 -5.660156 5 -5.515625 C 5.476562 -5.347656 5.910156 -5.15625 6.296875 -4.9375 C 6.691406 -4.71875 7.007812 -4.425781 7.25 -4.0625 C 7.488281 -3.707031 7.609375 -3.242188 7.609375 -2.671875 C 7.609375 -2.160156 7.476562 -1.691406 7.21875 -1.265625 C 6.96875 -0.835938 6.585938 -0.488281 6.078125 -0.21875 C 5.578125 0.0390625 4.957031 0.171875 4.21875 0.171875 Z M 4.21875 0.171875 "/></g></g></g><g fill="#c3921c" fill-opacity="0.4"><g transform="translate(172.97357, 255.605081)"><g><path d="M 3.1875 0 L 3.1875 -8.21875 L 0.375 -8.21875 L 0.375 -9.640625 L 7.765625 -9.640625 L 7.765625 -8.21875 L 4.9375 -8.21875 L 4.9375 0 Z M 3.1875 0 "/></g></g></g><g fill="#c3921c" fill-opacity="0.4"><g transform="translate(181.111383, 255.605081)"><g><path d="M 0.3125 0 L 3.84375 -9.640625 L 5.828125 -9.640625 L 9.34375 0 L 7.46875 0 L 6.703125 -2.234375 L 2.953125 -2.234375 L 2.15625 0 Z M 3.421875 -3.609375 L 6.21875 -3.609375 L 4.8125 -7.609375 Z M 3.421875 -3.609375 "/></g></g></g><g fill="#c3921c" fill-opacity="0.4"><g transform="translate(190.763844, 255.605081)"><g><path d="M 3.1875 0 L 3.1875 -8.21875 L 0.375 -8.21875 L 0.375 -9.640625 L 7.765625 -9.640625 L 7.765625 -8.21875 L 4.9375 -8.21875 L 4.9375 0 Z M 3.1875 0 "/></g></g></g><g fill="#c3921c" fill-opacity="0.4"><g transform="translate(198.901657, 255.605081)"><g><path d="M 0.9375 0 L 0.9375 -9.640625 L 7.234375 -9.640625 L 7.234375 -8.21875 L 2.703125 -8.21875 L 2.703125 -5.578125 L 6.8125 -5.578125 L 6.8125 -4.203125 L 2.703125 -4.203125 L 2.703125 -1.421875 L 7.234375 -1.421875 L 7.234375 0 Z M 0.9375 0 "/></g></g></g><g fill="#c3921c" fill-opacity="0.4"><g transform="translate(206.860462, 255.605081)"><g/></g></g><g fill="#c3921c" fill-opacity="0.4"><g transform="translate(210.137615, 255.605081)"><g><path d="M 0.3125 0 L 3.84375 -9.640625 L 5.828125 -9.640625 L 9.34375 0 L 7.46875 0 L 6.703125 -2.234375 L 2.953125 -2.234375 L 2.15625 0 Z M 3.421875 -3.609375 L 6.21875 -3.609375 L 4.8125 -7.609375 Z M 3.421875 -3.609375 "/></g></g></g><g fill="#c3921c" fill-opacity="0.4"><g transform="translate(219.790076, 255.605081)"><g><path d="M 5.140625 0.171875 C 4.234375 0.171875 3.441406 -0.0351562 2.765625 -0.453125 C 2.085938 -0.867188 1.5625 -1.445312 1.1875 -2.1875 C 0.8125 -2.925781 0.625 -3.785156 0.625 -4.765625 C 0.625 -5.753906 0.816406 -6.625 1.203125 -7.375 C 1.597656 -8.132812 2.15625 -8.726562 2.875 -9.15625 C 3.59375 -9.582031 4.445312 -9.796875 5.4375 -9.796875 C 6.5625 -9.796875 7.492188 -9.523438 8.234375 -8.984375 C 8.984375 -8.441406 9.46875 -7.695312 9.6875 -6.75 L 7.71875 -6.75 C 7.570312 -7.195312 7.304688 -7.546875 6.921875 -7.796875 C 6.535156 -8.046875 6.039062 -8.171875 5.4375 -8.171875 C 4.46875 -8.171875 3.722656 -7.863281 3.203125 -7.25 C 2.679688 -6.644531 2.421875 -5.8125 2.421875 -4.75 C 2.421875 -3.6875 2.679688 -2.863281 3.203125 -2.28125 C 3.722656 -1.695312 4.425781 -1.40625 5.3125 -1.40625 C 6.1875 -1.40625 6.84375 -1.640625 7.28125 -2.109375 C 7.726562 -2.585938 8 -3.210938 8.09375 -3.984375 L 5.65625 -3.984375 L 5.65625 -5.296875 L 9.875 -5.296875 L 9.875 0 L 8.25 0 L 8.109375 -1.265625 C 7.796875 -0.804688 7.40625 -0.453125 6.9375 -0.203125 C 6.46875 0.046875 5.867188 0.171875 5.140625 0.171875 Z M 5.140625 0.171875 "/></g></g></g><g fill="#c3921c" fill-opacity="0.4"><g transform="translate(230.43395, 255.605081)"><g><path d="M 0.9375 0 L 0.9375 -9.640625 L 7.234375 -9.640625 L 7.234375 -8.21875 L 2.703125 -8.21875 L 2.703125 -5.578125 L 6.8125 -5.578125 L 6.8125 -4.203125 L 2.703125 -4.203125 L 2.703125 -1.421875 L 7.234375 -1.421875 L 7.234375 0 Z M 0.9375 0 "/></g></g></g><g fill="#c3921c" fill-opacity="0.4"><g transform="translate(238.392755, 255.605081)"><g><path d="M 0.9375 0 L 0.9375 -9.640625 L 2.703125 -9.640625 L 7.234375 -2.84375 L 7.234375 -9.640625 L 8.984375 -9.640625 L 8.984375 0 L 7.234375 0 L 2.703125 -6.765625 L 2.703125 0 Z M 0.9375 0 "/></g></g></g><g fill="#c3921c" fill-opacity="0.4"><g transform="translate(248.320607, 255.605081)"><g><path d="M 3.1875 0 L 3.1875 -8.21875 L 0.375 -8.21875 L 0.375 -9.640625 L 7.765625 -9.640625 L 7.765625 -8.21875 L 4.9375 -8.21875 L 4.9375 0 Z M 3.1875 0 "/></g></g></g><g fill="#c3921c" fill-opacity="1"><g transform="translate(119.131747, 254.996395)"><g><path d="M 0.9375 0 L 0.9375 -9.640625 L 4.46875 -9.640625 C 5.238281 -9.640625 5.875 -9.503906 6.375 -9.234375 C 6.875 -8.972656 7.25 -8.617188 7.5 -8.171875 C 7.75 -7.734375 7.875 -7.242188 7.875 -6.703125 C 7.875 -6.117188 7.71875 -5.582031 7.40625 -5.09375 C 7.101562 -4.601562 6.625 -4.25 5.96875 -4.03125 L 7.96875 0 L 5.953125 0 L 4.15625 -3.796875 L 2.703125 -3.796875 L 2.703125 0 Z M 2.703125 -5.09375 L 4.359375 -5.09375 C 4.953125 -5.09375 5.382812 -5.234375 5.65625 -5.515625 C 5.9375 -5.804688 6.078125 -6.1875 6.078125 -6.65625 C 6.078125 -7.113281 5.941406 -7.476562 5.671875 -7.75 C 5.398438 -8.019531 4.957031 -8.15625 4.34375 -8.15625 L 2.703125 -8.15625 Z M 2.703125 -5.09375 "/></g></g></g><g fill="#c3921c" fill-opacity="1"><g transform="translate(127.710192, 254.996395)"><g><path d="M 0.9375 0 L 0.9375 -9.640625 L 7.234375 -9.640625 L 7.234375 -8.21875 L 2.703125 -8.21875 L 2.703125 -5.578125 L 6.8125 -5.578125 L 6.8125 -4.203125 L 2.703125 -4.203125 L 2.703125 -1.421875 L 7.234375 -1.421875 L 7.234375 0 Z M 0.9375 0 "/></g></g></g><g fill="#c3921c" fill-opacity="1"><g transform="translate(135.668996, 254.996395)"><g><path d="M 0.3125 0 L 3.84375 -9.640625 L 5.828125 -9.640625 L 9.34375 0 L 7.46875 0 L 6.703125 -2.234375 L 2.953125 -2.234375 L 2.15625 0 Z M 3.421875 -3.609375 L 6.21875 -3.609375 L 4.8125 -7.609375 Z M 3.421875 -3.609375 "/></g></g></g><g fill="#c3921c" fill-opacity="1"><g transform="translate(145.321458, 254.996395)"><g><path d="M 0.9375 0 L 0.9375 -9.640625 L 2.703125 -9.640625 L 2.703125 -1.375 L 6.96875 -1.375 L 6.96875 0 Z M 0.9375 0 "/></g></g></g><g fill="#c3921c" fill-opacity="1"><g transform="translate(152.908489, 254.996395)"><g/></g></g><g fill="#c3921c" fill-opacity="1"><g transform="translate(156.185642, 254.996395)"><g><path d="M 0.9375 0 L 0.9375 -9.640625 L 7.234375 -9.640625 L 7.234375 -8.21875 L 2.703125 -8.21875 L 2.703125 -5.578125 L 6.8125 -5.578125 L 6.8125 -4.203125 L 2.703125 -4.203125 L 2.703125 -1.421875 L 7.234375 -1.421875 L 7.234375 0 Z M 0.9375 0 "/></g></g></g><g fill="#c3921c" fill-opacity="1"><g transform="translate(164.144447, 254.996395)"><g><path d="M 4.21875 0.171875 C 3.519531 0.171875 2.898438 0.0507812 2.359375 -0.1875 C 1.816406 -0.4375 1.390625 -0.785156 1.078125 -1.234375 C 0.765625 -1.691406 0.601562 -2.25 0.59375 -2.90625 L 2.453125 -2.90625 C 2.472656 -2.457031 2.632812 -2.078125 2.9375 -1.765625 C 3.25 -1.460938 3.675781 -1.3125 4.21875 -1.3125 C 4.6875 -1.3125 5.054688 -1.421875 5.328125 -1.640625 C 5.597656 -1.867188 5.734375 -2.171875 5.734375 -2.546875 C 5.734375 -2.941406 5.613281 -3.25 5.375 -3.46875 C 5.132812 -3.6875 4.8125 -3.863281 4.40625 -4 C 4 -4.144531 3.566406 -4.296875 3.109375 -4.453125 C 2.367188 -4.703125 1.800781 -5.03125 1.40625 -5.4375 C 1.019531 -5.84375 0.828125 -6.378906 0.828125 -7.046875 C 0.816406 -7.617188 0.953125 -8.109375 1.234375 -8.515625 C 1.515625 -8.921875 1.894531 -9.234375 2.375 -9.453125 C 2.863281 -9.679688 3.425781 -9.796875 4.0625 -9.796875 C 4.707031 -9.796875 5.273438 -9.679688 5.765625 -9.453125 C 6.253906 -9.222656 6.640625 -8.898438 6.921875 -8.484375 C 7.203125 -8.078125 7.347656 -7.585938 7.359375 -7.015625 L 5.484375 -7.015625 C 5.472656 -7.359375 5.335938 -7.660156 5.078125 -7.921875 C 4.828125 -8.179688 4.476562 -8.3125 4.03125 -8.3125 C 3.644531 -8.320312 3.320312 -8.226562 3.0625 -8.03125 C 2.800781 -7.832031 2.671875 -7.546875 2.671875 -7.171875 C 2.671875 -6.847656 2.769531 -6.59375 2.96875 -6.40625 C 3.175781 -6.21875 3.453125 -6.054688 3.796875 -5.921875 C 4.148438 -5.796875 4.550781 -5.660156 5 -5.515625 C 5.476562 -5.347656 5.910156 -5.15625 6.296875 -4.9375 C 6.691406 -4.71875 7.007812 -4.425781 7.25 -4.0625 C 7.488281 -3.707031 7.609375 -3.242188 7.609375 -2.671875 C 7.609375 -2.160156 7.476562 -1.691406 7.21875 -1.265625 C 6.96875 -0.835938 6.585938 -0.488281 6.078125 -0.21875 C 5.578125 0.0390625 4.957031 0.171875 4.21875 0.171875 Z M 4.21875 0.171875 "/></g></g></g><g fill="#c3921c" fill-opacity="1"><g transform="translate(172.364875, 254.996395)"><g><path d="M 3.1875 0 L 3.1875 -8.21875 L 0.375 -8.21875 L 0.375 -9.640625 L 7.765625 -9.640625 L 7.765625 -8.21875 L 4.9375 -8.21875 L 4.9375 0 Z M 3.1875 0 "/></g></g></g><g fill="#c3921c" fill-opacity="1"><g transform="translate(180.502688, 254.996395)"><g><path d="M 0.3125 0 L 3.84375 -9.640625 L 5.828125 -9.640625 L 9.34375 0 L 7.46875 0 L 6.703125 -2.234375 L 2.953125 -2.234375 L 2.15625 0 Z M 3.421875 -3.609375 L 6.21875 -3.609375 L 4.8125 -7.609375 Z M 3.421875 -3.609375 "/></g></g></g><g fill="#c3921c" fill-opacity="1"><g transform="translate(190.155149, 254.996395)"><g><path d="M 3.1875 0 L 3.1875 -8.21875 L 0.375 -8.21875 L 0.375 -9.640625 L 7.765625 -9.640625 L 7.765625 -8.21875 L 4.9375 -8.21875 L 4.9375 0 Z M 3.1875 0 "/></g></g></g><g fill="#c3921c" fill-opacity="1"><g transform="translate(198.292962, 254.996395)"><g><path d="M 0.9375 0 L 0.9375 -9.640625 L 7.234375 -9.640625 L 7.234375 -8.21875 L 2.703125 -8.21875 L 2.703125 -5.578125 L 6.8125 -5.578125 L 6.8125 -4.203125 L 2.703125 -4.203125 L 2.703125 -1.421875 L 7.234375 -1.421875 L 7.234375 0 Z M 0.9375 0 "/></g></g></g><g fill="#c3921c" fill-opacity="1"><g transform="translate(206.251767, 254.996395)"><g/></g></g><g fill="#c3921c" fill-opacity="1"><g transform="translate(209.52892, 254.996395)"><g><path d="M 0.3125 0 L 3.84375 -9.640625 L 5.828125 -9.640625 L 9.34375 0 L 7.46875 0 L 6.703125 -2.234375 L 2.953125 -2.234375 L 2.15625 0 Z M 3.421875 -3.609375 L 6.21875 -3.609375 L 4.8125 -7.609375 Z M 3.421875 -3.609375 "/></g></g></g><g fill="#c3921c" fill-opacity="1"><g transform="translate(219.181381, 254.996395)"><g><path d="M 5.140625 0.171875 C 4.234375 0.171875 3.441406 -0.0351562 2.765625 -0.453125 C 2.085938 -0.867188 1.5625 -1.445312 1.1875 -2.1875 C 0.8125 -2.925781 0.625 -3.785156 0.625 -4.765625 C 0.625 -5.753906 0.816406 -6.625 1.203125 -7.375 C 1.597656 -8.132812 2.15625 -8.726562 2.875 -9.15625 C 3.59375 -9.582031 4.445312 -9.796875 5.4375 -9.796875 C 6.5625 -9.796875 7.492188 -9.523438 8.234375 -8.984375 C 8.984375 -8.441406 9.46875 -7.695312 9.6875 -6.75 L 7.71875 -6.75 C 7.570312 -7.195312 7.304688 -7.546875 6.921875 -7.796875 C 6.535156 -8.046875 6.039062 -8.171875 5.4375 -8.171875 C 4.46875 -8.171875 3.722656 -7.863281 3.203125 -7.25 C 2.679688 -6.644531 2.421875 -5.8125 2.421875 -4.75 C 2.421875 -3.6875 2.679688 -2.863281 3.203125 -2.28125 C 3.722656 -1.695312 4.425781 -1.40625 5.3125 -1.40625 C 6.1875 -1.40625 6.84375 -1.640625 7.28125 -2.109375 C 7.726562 -2.585938 8 -3.210938 8.09375 -3.984375 L 5.65625 -3.984375 L 5.65625 -5.296875 L 9.875 -5.296875 L 9.875 0 L 8.25 0 L 8.109375 -1.265625 C 7.796875 -0.804688 7.40625 -0.453125 6.9375 -0.203125 C 6.46875 0.046875 5.867188 0.171875 5.140625 0.171875 Z M 5.140625 0.171875 "/></g></g></g><g fill="#c3921c" fill-opacity="1"><g transform="translate(229.825255, 254.996395)"><g><path d="M 0.9375 0 L 0.9375 -9.640625 L 7.234375 -9.640625 L 7.234375 -8.21875 L 2.703125 -8.21875 L 2.703125 -5.578125 L 6.8125 -5.578125 L 6.8125 -4.203125 L 2.703125 -4.203125 L 2.703125 -1.421875 L 7.234375 -1.421875 L 7.234375 0 Z M 0.9375 0 "/></g></g></g><g fill="#c3921c" fill-opacity="1"><g transform="translate(237.78406, 254.996395)"><g><path d="M 0.9375 0 L 0.9375 -9.640625 L 2.703125 -9.640625 L 7.234375 -2.84375 L 7.234375 -9.640625 L 8.984375 -9.640625 L 8.984375 0 L 7.234375 0 L 2.703125 -6.765625 L 2.703125 0 Z M 0.9375 0 "/></g></g></g><g fill="#c3921c" fill-opacity="1"><g transform="translate(247.711912, 254.996395)"><g><path d="M 3.1875 0 L 3.1875 -8.21875 L 0.375 -8.21875 L 0.375 -9.640625 L 7.765625 -9.640625 L 7.765625 -8.21875 L 4.9375 -8.21875 L 4.9375 0 Z M 3.1875 0 "/></g></g></g></svg>